<?xml version="1.0" encoding="UTF-8"?>
<svg width="2000px" height="1000px" viewBox="0 0 2000 1000" version="1.1" xmlns="http://www.w3.org/2000/svg" xmlns:xlink="http://www.w3.org/1999/xlink">
    <title>fianu-wordmark-shadow copy</title>
    <g id="fianu-wordmark-shadow-copy" stroke="none" stroke-width="1" fill="none" fill-rule="evenodd" stroke-linejoin="round">
        <path d="M1531,417 C1535.14214,417 1538.89214,418.678932 1541.6066,421.393398 C1544.32107,424.107864 1546,427.857864 1546,432 L1546,557 C1546,566.867868 1547.18626,576.180039 1549.57382,584.934413 C1551.88837,593.421105 1555.41686,600.762675 1560.20208,606.937142 C1564.92284,613.028445 1570.86802,617.892914 1578.02389,621.546974 C1585.20356,625.213192 1593.53699,627 1603,627 C1612.46301,627 1620.79644,625.213192 1627.97611,621.546974 C1635.13198,617.892914 1641.07716,613.028445 1645.79792,606.937142 C1650.58314,600.762675 1654.11163,593.421105 1656.42618,584.934413 C1658.81374,576.180039 1660,566.867868 1660,557 L1660,432 C1660,427.857864 1661.67893,424.107864 1664.3934,421.393398 C1667.10786,418.678932 1670.85786,417 1675,417 L1730,417 C1734.14214,417 1737.89214,418.678932 1740.6066,421.393398 C1743.32107,424.107864 1745,427.857864 1745,432 L1745,557 C1745,577.290016 1741.63726,596.373983 1734.93165,614.255617 C1728.19712,632.214352 1718.60624,647.923164 1706.17402,661.391401 C1693.71825,674.885144 1678.75866,685.531845 1661.28489,693.317191 C1643.84259,701.088509 1624.41818,705 1603,705 C1581.58182,705 1562.15741,701.088509 1544.71511,693.317191 C1527.24134,685.531845 1512.28175,674.885144 1499.82598,661.391401 C1487.39376,647.923164 1477.80288,632.214352 1471.06835,614.255617 C1464.36274,596.373983 1461,577.290016 1461,557 L1461,432 C1461,427.857864 1462.67893,424.107864 1465.3934,421.393398 C1468.10786,418.678932 1471.85786,417 1476,417 Z M947.5,409 C968.853495,409 988.82626,412.885942 1007.42308,420.634615 C1026.02562,428.385676 1042.21159,438.985561 1055.9905,452.419999 C1069.76997,465.854986 1080.71068,481.527138 1088.80632,499.440893 C1096.93028,517.417311 1101,536.602548 1101,557 L1101,682 C1101,686.142136 1099.32107,689.892136 1096.6066,692.606602 C1093.89214,695.321068 1090.14214,697 1086,697 L1036,697 C1031.85786,697 1028.10786,695.321068 1025.3934,692.606602 C1022.67893,689.892136 1021,686.142136 1021,682 L1021,672.81289 C1013.56545,680.891886 1004.86797,687.66612 994.905489,693.133335 C980.508266,701.03425 964.709115,705 947.5,705 C926.493971,705 906.608865,701.119426 887.841987,693.371632 C869.064189,685.61933 852.79047,675.016447 839.009499,661.580001 C825.230026,648.145014 814.289317,632.472862 806.193677,614.559107 C798.069719,596.582689 794,577.397452 794,557 C794,536.602548 798.069719,517.417311 806.193677,499.440893 C814.289317,481.527138 825.230026,465.854986 839.009499,452.419999 C852.79047,438.983553 869.064189,428.38067 887.841987,420.628368 C906.608865,412.880574 926.493971,409 947.5,409 Z M949,487 C939.374126,487 930.289695,488.856163 921.749722,492.582697 C913.17871,496.322775 905.769911,501.301157 899.535534,507.535534 C893.301157,513.769911 888.322775,521.17871 884.582697,529.749722 C880.856163,538.289695 879,547.374126 879,557 C879,566.625874 880.856163,575.710305 884.582697,584.250278 C888.322775,592.82129 893.301157,600.230089 899.535534,606.464466 C905.769911,612.698843 913.17871,617.677225 921.749722,621.417303 C930.289695,625.143837 939.374126,627 949,627 C958.625874,627 967.710305,625.143837 976.250278,621.417303 C984.82129,617.677225 992.230089,612.698843 998.464466,606.464466 C1004.69884,600.230089 1009.67723,592.82129 1013.4173,584.250278 C1017.14384,575.710305 1019,566.625874 1019,557 C1019,547.374126 1017.14384,538.289695 1013.4173,529.749722 C1009.67723,521.17871 1004.69884,513.769911 998.464466,507.535534 C992.230089,501.301157 984.82129,496.322775 976.250278,492.582697 C967.710305,488.856163 958.625874,487 949,487 Z M739.5,467 C743.642136,467 747.392136,468.678932 750.106602,471.393398 C752.821068,474.107864 754.5,477.857864 754.5,482 L754.5,682 C754.5,686.142136 752.821068,689.892136 750.106602,692.606602 C747.392136,695.321068 743.642136,697 739.5,697 L684.5,697 C680.357864,697 676.607864,695.321068 673.893398,692.606602 C671.178932,689.892136 669.5,686.142136 669.5,682 L669.5,482 C669.5,477.857864 671.178932,474.107864 673.893398,471.393398 C676.607864,468.678932 680.357864,467 684.5,467 Z M1281,409 C1302.39878,409 1321.97957,412.903643 1339.75176,420.668193 C1357.55163,428.444833 1372.83989,439.080062 1385.62732,452.558698 C1398.39712,466.018754 1408.32607,481.71856 1415.40158,499.666204 C1422.4607,517.572255 1426,536.682251 1426,557 L1426,682 C1426,686.142136 1424.32107,689.892136 1421.6066,692.606602 C1418.89214,695.321068 1415.14214,697 1411,697 L1356,697 C1351.85786,697 1348.10786,695.321068 1345.3934,692.606602 C1342.67893,689.892136 1341,686.142136 1341,682 L1341,557 C1341,547.189173 1339.66329,537.930467 1336.97299,529.226531 C1334.34465,520.723095 1330.49681,513.368193 1325.39313,507.181915 C1320.33924,501.055978 1314.05336,496.165105 1306.55066,492.490314 C1299.03125,488.807335 1290.50873,487 1281,487 C1271.49127,487 1262.96875,488.807335 1255.44934,492.490314 C1247.94664,496.165105 1241.66076,501.055978 1236.60687,507.181915 C1231.50319,513.368193 1227.65535,520.723095 1225.02701,529.226531 C1222.33671,537.930467 1221,547.189173 1221,557 L1221,682 C1221,686.142136 1219.32107,689.892136 1216.6066,692.606602 C1213.89214,695.321068 1210.14214,697 1206,697 L1151,697 C1146.85786,697 1143.10786,695.321068 1140.3934,692.606602 C1137.67893,689.892136 1136,686.142136 1136,682 L1136,557 C1136,536.682251 1139.5393,517.572255 1146.59842,499.666204 C1153.67393,481.71856 1163.60288,466.018754 1176.37268,452.558698 C1189.16011,439.080062 1204.44837,428.444833 1222.24824,420.668193 C1240.02043,412.903643 1259.60122,409 1281,409 Z M623.927634,319 C628.069769,319 631.819769,320.678932 634.534235,323.393398 C637.248701,326.107864 638.927634,329.857864 638.927634,334 L638.927634,382 C638.927634,386.142136 637.248701,389.892136 634.534235,392.606602 C631.819769,395.321068 628.069769,397 623.927634,397 L586,397 C576.491272,397 567.968752,398.807335 560.449337,402.490314 C552.946639,406.165105 546.660764,411.055978 541.606866,417.181915 C536.503187,423.368193 532.655348,430.723095 530.027013,439.226531 C527.336706,447.930467 526,457.189173 526,467 L526,496.442767 L583.388947,496.442767 C587.531083,496.442767 591.281083,498.1217 593.995549,500.836166 C596.710015,503.550632 598.388947,507.300632 598.388947,511.442767 L598.388947,553.812146 C598.388947,557.954281 596.710015,561.704281 593.995549,564.418747 C591.281083,567.133213 587.531083,568.812146 583.388947,568.812146 L526,568.812146 L526,682 C526,686.142136 524.321068,689.892136 521.606602,692.606602 C518.892136,695.321068 515.142136,697 511,697 L456,697 C451.857864,697 448.107864,695.321068 445.393398,692.606602 C442.678932,689.892136 441,686.142136 441,682 L441,467 C441,446.682251 444.539304,427.572255 451.59842,409.666204 C458.673934,391.71856 468.602884,376.018754 481.372682,362.558698 C494.160106,349.080062 509.448374,338.444833 527.24824,330.668193 C545.020431,322.903643 564.601223,319 586,319 Z M712,354 C718.739111,354 725.006481,355.323136 730.807934,357.943147 C736.54212,360.53278 741.531765,363.960697 745.785534,368.214466 C750.039303,372.468235 753.46722,377.45788 756.056853,383.192066 C758.676864,388.993519 760,395.260889 760,402 C760,408.739111 758.676864,415.006481 756.056853,420.807934 C753.485276,426.50214 750.08441,431.551385 745.859941,435.959527 C741.550354,440.456487 736.492517,443.924989 730.683633,446.360972 C724.920523,448.77776 718.694568,450 712,450 C698.604651,450 687.263792,445.33486 677.964466,436.035534 C668.66514,426.736208 664,415.395349 664,402 C664,395.305432 665.22224,389.079477 667.639028,383.316367 C670.075011,377.507483 673.543513,372.449646 678.040473,368.140059 C682.448615,363.91559 687.49786,360.514724 693.192066,357.943147 C698.993519,355.323136 705.260889,354 712,354 Z" id="fianu" stroke="#002C46" stroke-width="10" fill="#002C46" fill-rule="nonzero"></path>
        <circle id="Oval" stroke="#002C46" stroke-width="10" fill="#002C46" fill-rule="nonzero" cx="310" cy="413" r="50"></circle>
        <circle id="Oval" stroke="#002C46" stroke-width="10" fill="#002C46" fill-rule="nonzero" cx="310" cy="528" r="50"></circle>
        <circle id="Oval" stroke="#002C46" stroke-width="10" fill="#002C46" fill-rule="nonzero" cx="310" cy="642" r="50"></circle>
        <path d="M1520,405 C1524.14214,405 1527.89214,406.678932 1530.6066,409.393398 C1533.32107,412.107864 1535,415.857864 1535,420 L1535,545 C1535,554.867868 1536.18626,564.180039 1538.57382,572.934413 C1540.88837,581.421105 1544.41686,588.762675 1549.20208,594.937142 C1553.92284,601.028445 1559.86802,605.892914 1567.02389,609.546974 C1574.20356,613.213192 1582.53699,615 1592,615 C1601.46301,615 1609.79644,613.213192 1616.97611,609.546974 C1624.13198,605.892914 1630.07716,601.028445 1634.79792,594.937142 C1639.58314,588.762675 1643.11163,581.421105 1645.42618,572.934413 C1647.81374,564.180039 1649,554.867868 1649,545 L1649,420 C1649,415.857864 1650.67893,412.107864 1653.3934,409.393398 C1656.10786,406.678932 1659.85786,405 1664,405 L1719,405 C1723.14214,405 1726.89214,406.678932 1729.6066,409.393398 C1732.32107,412.107864 1734,415.857864 1734,420 L1734,545 C1734,565.290016 1730.63726,584.373983 1723.93165,602.255617 C1717.19712,620.214352 1707.60624,635.923164 1695.17402,649.391401 C1682.71825,662.885144 1667.75866,673.531845 1650.28489,681.317191 C1632.84259,689.088509 1613.41818,693 1592,693 C1570.58182,693 1551.15741,689.088509 1533.71511,681.317191 C1516.24134,673.531845 1501.28175,662.885144 1488.82598,649.391401 C1476.39376,635.923164 1466.80288,620.214352 1460.06835,602.255617 C1453.36274,584.373983 1450,565.290016 1450,545 L1450,420 C1450,415.857864 1451.67893,412.107864 1454.3934,409.393398 C1457.10786,406.678932 1460.85786,405 1465,405 Z M936.5,397 C957.853495,397 977.82626,400.885942 996.423077,408.634615 C1015.02562,416.385676 1031.21159,426.985561 1044.9905,440.419999 C1058.76997,453.854986 1069.71068,469.527138 1077.80632,487.440893 C1085.93028,505.417311 1090,524.602548 1090,545 L1090,670 C1090,674.142136 1088.32107,677.892136 1085.6066,680.606602 C1082.89214,683.321068 1079.14214,685 1075,685 L1025,685 C1020.85786,685 1017.10786,683.321068 1014.3934,680.606602 C1011.67893,677.892136 1010,674.142136 1010,670 L1010,660.81289 C1002.56545,668.891886 993.867968,675.66612 983.905489,681.133335 C969.508266,689.03425 953.709115,693 936.5,693 C915.493971,693 895.608865,689.119426 876.841987,681.371632 C858.064189,673.61933 841.79047,663.016447 828.009499,649.580001 C814.230026,636.145014 803.289317,620.472862 795.193677,602.559107 C787.069719,584.582689 783,565.397452 783,545 C783,524.602548 787.069719,505.417311 795.193677,487.440893 C803.289317,469.527138 814.230026,453.854986 828.009499,440.419999 C841.79047,426.983553 858.064189,416.38067 876.841987,408.628368 C895.608865,400.880574 915.493971,397 936.5,397 Z M938,475 C928.374126,475 919.289695,476.856163 910.749722,480.582697 C902.17871,484.322775 894.769911,489.301157 888.535534,495.535534 C882.301157,501.769911 877.322775,509.17871 873.582697,517.749722 C869.856163,526.289695 868,535.374126 868,545 C868,554.625874 869.856163,563.710305 873.582697,572.250278 C877.322775,580.82129 882.301157,588.230089 888.535534,594.464466 C894.769911,600.698843 902.17871,605.677225 910.749722,609.417303 C919.289695,613.143837 928.374126,615 938,615 C947.625874,615 956.710305,613.143837 965.250278,609.417303 C973.82129,605.677225 981.230089,600.698843 987.464466,594.464466 C993.698843,588.230089 998.677225,580.82129 1002.4173,572.250278 C1006.14384,563.710305 1008,554.625874 1008,545 C1008,535.374126 1006.14384,526.289695 1002.4173,517.749722 C998.677225,509.17871 993.698843,501.769911 987.464466,495.535534 C981.230089,489.301157 973.82129,484.322775 965.250278,480.582697 C956.710305,476.856163 947.625874,475 938,475 Z M728.5,455 C732.642136,455 736.392136,456.678932 739.106602,459.393398 C741.821068,462.107864 743.5,465.857864 743.5,470 L743.5,670 C743.5,674.142136 741.821068,677.892136 739.106602,680.606602 C736.392136,683.321068 732.642136,685 728.5,685 L673.5,685 C669.357864,685 665.607864,683.321068 662.893398,680.606602 C660.178932,677.892136 658.5,674.142136 658.5,670 L658.5,470 C658.5,465.857864 660.178932,462.107864 662.893398,459.393398 C665.607864,456.678932 669.357864,455 673.5,455 Z M1270,397 C1291.39878,397 1310.97957,400.903643 1328.75176,408.668193 C1346.55163,416.444833 1361.83989,427.080062 1374.62732,440.558698 C1387.39712,454.018754 1397.32607,469.71856 1404.40158,487.666204 C1411.4607,505.572255 1415,524.682251 1415,545 L1415,670 C1415,674.142136 1413.32107,677.892136 1410.6066,680.606602 C1407.89214,683.321068 1404.14214,685 1400,685 L1345,685 C1340.85786,685 1337.10786,683.321068 1334.3934,680.606602 C1331.67893,677.892136 1330,674.142136 1330,670 L1330,545 C1330,535.189173 1328.66329,525.930467 1325.97299,517.226531 C1323.34465,508.723095 1319.49681,501.368193 1314.39313,495.181915 C1309.33924,489.055978 1303.05336,484.165105 1295.55066,480.490314 C1288.03125,476.807335 1279.50873,475 1270,475 C1260.49127,475 1251.96875,476.807335 1244.44934,480.490314 C1236.94664,484.165105 1230.66076,489.055978 1225.60687,495.181915 C1220.50319,501.368193 1216.65535,508.723095 1214.02701,517.226531 C1211.33671,525.930467 1210,535.189173 1210,545 L1210,670 C1210,674.142136 1208.32107,677.892136 1205.6066,680.606602 C1202.89214,683.321068 1199.14214,685 1195,685 L1140,685 C1135.85786,685 1132.10786,683.321068 1129.3934,680.606602 C1126.67893,677.892136 1125,674.142136 1125,670 L1125,545 C1125,524.682251 1128.5393,505.572255 1135.59842,487.666204 C1142.67393,469.71856 1152.60288,454.018754 1165.37268,440.558698 C1178.16011,427.080062 1193.44837,416.444833 1211.24824,408.668193 C1229.02043,400.903643 1248.60122,397 1270,397 Z M612.927634,307 C617.069769,307 620.819769,308.678932 623.534235,311.393398 C626.248701,314.107864 627.927634,317.857864 627.927634,322 L627.927634,370 C627.927634,374.142136 626.248701,377.892136 623.534235,380.606602 C620.819769,383.321068 617.069769,385 612.927634,385 L575,385 C565.491272,385 556.968752,386.807335 549.449337,390.490314 C541.946639,394.165105 535.660764,399.055978 530.606866,405.181915 C525.503187,411.368193 521.655348,418.723095 519.027013,427.226531 C516.336706,435.930467 515,445.189173 515,455 L515,484.442767 L572.388947,484.442767 C576.531083,484.442767 580.281083,486.1217 582.995549,488.836166 C585.710015,491.550632 587.388947,495.300632 587.388947,499.442767 L587.388947,541.812146 C587.388947,545.954281 585.710015,549.704281 582.995549,552.418747 C580.281083,555.133213 576.531083,556.812146 572.388947,556.812146 L515,556.812146 L515,670 C515,674.142136 513.321068,677.892136 510.606602,680.606602 C507.892136,683.321068 504.142136,685 500,685 L445,685 C440.857864,685 437.107864,683.321068 434.393398,680.606602 C431.678932,677.892136 430,674.142136 430,670 L430,455 C430,434.682251 433.539304,415.572255 440.59842,397.666204 C447.673934,379.71856 457.602884,364.018754 470.372682,350.558698 C483.160106,337.080062 498.448374,326.444833 516.24824,318.668193 C534.020431,310.903643 553.601223,307 575,307 Z M701,342 C707.739111,342 714.006481,343.323136 719.807934,345.943147 C725.54212,348.53278 730.531765,351.960697 734.785534,356.214466 C739.039303,360.468235 742.46722,365.45788 745.056853,371.192066 C747.676864,376.993519 749,383.260889 749,390 C749,396.739111 747.676864,403.006481 745.056853,408.807934 C742.485276,414.50214 739.08441,419.551385 734.859941,423.959527 C730.550354,428.456487 725.492517,431.924989 719.683633,434.360972 C713.920523,436.77776 707.694568,438 701,438 C687.604651,438 676.263792,433.33486 666.964466,424.035534 C657.66514,414.736208 653,403.395349 653,390 C653,383.305432 654.22224,377.079477 656.639028,371.316367 C659.075011,365.507483 662.543513,360.449646 667.040473,356.140059 C671.448615,351.91559 676.49786,348.514724 682.192066,345.943147 C687.993519,343.323136 694.260889,342 701,342 Z" id="fianu" stroke="#002C46" stroke-width="10" fill="#FFFFFF" fill-rule="nonzero"></path>
        <circle id="Oval" stroke="#002C46" stroke-width="10" fill="#FF0000" fill-rule="nonzero" cx="299" cy="401" r="50"></circle>
        <circle id="Oval" stroke="#002C46" stroke-width="10" fill="#FFCD00" fill-rule="nonzero" cx="299" cy="516" r="50"></circle>
        <circle id="Oval" stroke="#002C46" stroke-width="10" fill="#00CA60" fill-rule="nonzero" cx="299" cy="630" r="50"></circle>
    </g>
</svg>
