<?xml version="1.0" encoding="UTF-8"?>
<svg width="1572px" height="465px" viewBox="0 0 1572 465" version="1.1" xmlns="http://www.w3.org/2000/svg" xmlns:xlink="http://www.w3.org/1999/xlink">
    <title>fianu</title>
    <g id="fianu" stroke="none" stroke-width="1" fill="none" fill-rule="evenodd">
        <g id="Group" transform="translate(42.000000, 38.000000)">
            <path d="M447,35 C453,35 458.583333,36.1666667 463.75,38.5 C468.916667,40.8333333 473.416667,43.9166667 477.25,47.75 C481.083333,51.5833333 484.166667,56.0833333 486.5,61.25 C488.833333,66.4166667 490,72 490,78 C490,84 488.833333,89.5833333 486.5,94.75 C484.166667,99.9166667 481.083333,104.5 477.25,108.5 C473.416667,112.5 468.916667,115.583333 463.75,117.75 C458.583333,119.916667 453,121 447,121 C435,121 424.833333,116.833333 416.5,108.5 C408.166667,100.166667 404,90 404,78 C404,72 405.083333,66.4166667 407.25,61.25 C409.416667,56.0833333 412.5,51.5833333 416.5,47.75 C420.5,43.9166667 425.083333,40.8333333 430.25,38.5 C435.416667,36.1666667 441,35 447,35 Z M419.5,148 L474.5,148 C480.022847,148 484.5,152.477153 484.5,158 L484.5,358 C484.5,363.522847 480.022847,368 474.5,368 L419.5,368 C413.977153,368 409.5,363.522847 409.5,358 L409.5,158 C409.5,152.477153 413.977153,148 419.5,148 Z M682.5,90 C703.166667,90 722.5,93.75 740.5,101.25 C758.5,108.75 774.166667,119 787.5,132 C800.833333,145 811.416667,160.166667 819.25,177.5 C827.083333,194.833333 831,213.333333 831,233 L831,358 C831,363.522847 826.522847,368 821,368 L771,368 C765.477153,368 761,363.522847 761,358 L761,334.5 L761,334.5 C752.333333,347.166667 741.166667,357.25 727.5,364.75 C713.833333,372.25 698.833333,376 682.5,376 C662.166667,376 642.916667,372.25 624.75,364.75 C606.583333,357.25 590.833333,347 577.5,334 C564.166667,321 553.583333,305.833333 545.75,288.5 C537.916667,271.166667 534,252.666667 534,233 C534,213.333333 537.916667,194.833333 545.75,177.5 C553.583333,160.166667 564.166667,145 577.5,132 C590.833333,119 606.583333,108.75 624.75,101.25 C642.916667,93.75 662.166667,90 682.5,90 Z M684,308 C694.333333,308 704.083333,306 713.25,302 C722.416667,298 730.333333,292.666667 737,286 C743.666667,279.333333 749,271.416667 753,262.25 C757,253.083333 759,243.333333 759,233 C759,222.666667 757,212.916667 753,203.75 C749,194.583333 743.666667,186.666667 737,180 C730.333333,173.333333 722.416667,168 713.25,164 C704.083333,160 694.333333,158 684,158 C673.666667,158 663.916667,160 654.75,164 C645.583333,168 637.666667,173.333333 631,180 C624.333333,186.666667 619,194.583333 615,203.75 C611,212.916667 609,222.666667 609,233 C609,243.333333 611,253.083333 615,262.25 C619,271.416667 624.333333,279.333333 631,286 C637.666667,292.666667 645.583333,298 654.75,302 C663.916667,306 673.666667,308 684,308 Z M876,233 C876,213.333333 879.416667,194.833333 886.25,177.5 C893.083333,160.166667 902.666667,145 915,132 C927.333333,119 942.083333,108.75 959.25,101.25 C976.416667,93.75 995.333333,90 1016,90 C1036.66667,90 1055.58333,93.75 1072.75,101.25 C1089.91667,108.75 1104.66667,119 1117,132 C1129.33333,145 1138.91667,160.166667 1145.75,177.5 C1152.58333,194.833333 1156,213.333333 1156,233 L1156,358 C1156,363.522847 1151.52285,368 1146,368 L1091,368 C1085.47715,368 1081,363.522847 1081,358 L1081,233 L1081,233 C1081,222.666667 1079.58333,212.916667 1076.75,203.75 C1073.91667,194.583333 1069.75,186.666667 1064.25,180 C1058.75,173.333333 1051.91667,168 1043.75,164 C1035.58333,160 1026.33333,158 1016,158 C1005.66667,158 996.416667,160 988.25,164 C980.083333,168 973.25,173.333333 967.75,180 C962.25,186.666667 958.083333,194.583333 955.25,203.75 C952.416667,212.916667 951,222.666667 951,233 L951,358 C951,363.522847 946.522847,368 941,368 L886,368 C880.477153,368 876,363.522847 876,358 L876,233 L876,233 Z M181,143 C181,123.333333 184.416667,104.833333 191.25,87.5 C198.083333,70.1666667 207.666667,55 220,42 C232.333333,29 247.083333,18.75 264.25,11.25 C281.416667,3.75 300.333333,0 321,0 C333.642545,0 346.285089,0 358.927634,0 C364.450481,1.37012913e-14 368.927634,4.4771525 368.927634,10 L368.927634,58 C368.927634,63.5228475 364.450481,68 358.927634,68 C346.285089,68 333.642545,68 321,68 C310.666667,68 301.416667,70 293.25,74 C285.083333,78 278.25,83.3333333 272.75,90 C267.25,96.6666667 263.083333,104.583333 260.25,113.75 C257.416667,122.916667 256,132.666667 256,143 L256,177.442767 L318.388947,177.442767 C323.911795,177.442767 328.388947,181.91992 328.388947,187.442767 L328.388947,229.812146 C328.388947,235.334993 323.911795,239.812146 318.388947,239.812146 L256,239.812146 L256,239.812146 L256,358 C256,363.522847 251.522847,368 246,368 L191,368 C185.477153,368 181,363.522847 181,358 L181,239.812146 L181,239.812146 L181,221.588994 L181,177.442767 L181,143 Z M1276,108 L1276,233 L1276,233 C1276,243.333333 1277.25,253.083333 1279.75,262.25 C1282.25,271.416667 1286.08333,279.333333 1291.25,286 C1296.41667,292.666667 1302.91667,298 1310.75,302 C1318.58333,306 1327.66667,308 1338,308 C1348.33333,308 1357.41667,306 1365.25,302 C1373.08333,298 1379.58333,292.666667 1384.75,286 C1389.91667,279.333333 1393.75,271.416667 1396.25,262.25 C1398.75,253.083333 1400,243.333333 1400,233 L1400,108 C1400,102.477153 1404.47715,98 1410,98 L1465,98 C1470.52285,98 1475,102.477153 1475,108 L1475,233 L1475,233 C1475,252.666667 1471.75,271.166667 1465.25,288.5 C1458.75,305.833333 1449.5,321 1437.5,334 C1425.5,347 1411.08333,357.25 1394.25,364.75 C1377.41667,372.25 1358.66667,376 1338,376 C1317.33333,376 1298.58333,372.25 1281.75,364.75 C1264.91667,357.25 1250.5,347 1238.5,334 C1226.5,321 1217.25,305.833333 1210.75,288.5 C1204.25,271.166667 1201,252.666667 1201,233 L1201,108 C1201,102.477153 1205.47715,98 1211,98 L1266,98 C1271.52285,98 1276,102.477153 1276,108 Z" id="fianu" fill="#1E4258" fill-rule="nonzero"></path>
            <circle id="Oval" fill="#FF3838" cx="45" cy="89" r="45"></circle>
            <circle id="Oval" fill="#FFCD00" cx="45" cy="204" r="45"></circle>
            <circle id="Oval" fill="#00CA60" cx="45" cy="318" r="45"></circle>
        </g>
    </g>
</svg>